<?xml version="1.0" standalone="no"?>
<!DOCTYPE svg PUBLIC "-//W3C//DTD SVG 20010904//EN"
 "http://www.w3.org/TR/2001/REC-SVG-20010904/DTD/svg10.dtd">
<svg version="1.0" xmlns="http://www.w3.org/2000/svg"
 width="1024.000000pt" height="1024.000000pt" viewBox="0 0 1024.000000 1024.000000"
 preserveAspectRatio="xMidYMid meet">

<g transform="translate(0.000000,1024.000000) scale(0.100000,-0.100000)"
fill="#000000" stroke="none">
<path d="M1998 6334 c-125 -30 -228 -105 -275 -202 -22 -45 -28 -73 -31 -146
-5 -119 17 -182 88 -252 65 -64 122 -93 309 -155 133 -45 159 -57 197 -93 38
-37 44 -48 44 -83 0 -72 -62 -123 -151 -123 -78 0 -141 49 -155 119 l-6 31
-164 0 c-89 0 -165 -3 -167 -8 -3 -4 -1 -32 5 -61 38 -213 244 -341 527 -329
123 6 197 28 280 85 146 101 202 303 127 457 -48 98 -125 149 -350 230 -172
63 -222 89 -242 128 -22 42 -13 103 20 136 33 34 117 42 171 16 38 -18 75 -65
75 -96 0 -16 15 -18 170 -18 l170 0 0 24 c0 13 -9 54 -21 92 -18 57 -30 77
-82 129 -68 67 -124 97 -220 120 -77 18 -243 18 -319 -1z"/>
<path d="M5655 6340 c-106 -21 -235 -87 -316 -162 -174 -159 -248 -430 -184
-668 44 -165 177 -330 324 -404 185 -94 415 -101 600 -20 345 153 484 598 294
944 -77 140 -234 258 -399 300 -81 21 -239 26 -319 10z m301 -310 c73 -36 106
-71 148 -160 29 -61 31 -73 30 -175 0 -143 -22 -205 -103 -286 -69 -69 -129
-92 -242 -91 -180 1 -300 111 -330 303 -27 173 46 345 173 410 96 49 223 49
324 -1z"/>
<path d="M7475 6335 c-237 -52 -425 -235 -481 -470 -10 -42 -17 -111 -17 -175
0 -200 56 -344 183 -470 132 -132 269 -185 480 -184 107 1 136 5 206 27 133
44 242 123 321 234 81 113 92 155 93 326 l0 147 -345 0 -345 0 0 -115 0 -115
201 0 200 0 -6 -22 c-14 -44 -67 -118 -108 -148 -102 -75 -289 -80 -401 -11
-47 30 -105 95 -127 146 -65 147 -34 360 68 462 66 66 122 87 233 87 111 0
167 -21 225 -85 l35 -39 171 0 171 0 -6 28 c-4 15 -21 56 -39 92 -61 124 -202
234 -352 275 -87 23 -273 28 -360 10z"/>
<path d="M8901 6340 c-201 -43 -354 -153 -439 -318 -60 -114 -76 -185 -76
-332 0 -147 16 -218 76 -332 90 -173 258 -288 468 -319 213 -31 422 33 560
171 51 50 79 89 109 152 23 46 41 92 41 101 0 15 -17 17 -168 17 l-168 0 -36
-49 c-54 -72 -137 -111 -234 -111 -103 0 -168 26 -231 93 -73 77 -97 144 -97
277 0 133 24 200 97 277 68 72 133 96 242 91 102 -5 172 -40 223 -110 l34 -48
169 0 c151 0 169 2 169 17 0 9 -18 55 -41 101 -70 145 -205 257 -369 307 -65
19 -265 28 -329 15z"/>
<path d="M560 6210 l0 -130 170 0 170 0 0 -520 0 -520 160 0 160 0 0 520 0
520 170 0 170 0 0 130 0 130 -500 0 -500 0 0 -130z"/>
<path d="M2860 5690 l0 -650 155 0 155 0 0 260 0 260 195 0 195 0 0 125 0 125
-195 0 -195 0 0 135 0 135 265 0 266 0 -3 128 -3 127 -417 3 -418 2 0 -650z"/>
<path d="M3800 6335 c0 -3 95 -147 210 -320 l210 -315 -205 -325 c-113 -179
-205 -328 -205 -331 0 -2 80 -3 177 -2 l178 3 107 184 c59 101 112 189 117
194 6 6 58 -63 140 -187 l131 -196 181 0 c141 0 179 3 173 13 -4 6 -99 151
-211 320 -111 170 -203 310 -203 312 0 2 90 146 200 320 110 174 200 321 200
326 0 5 -77 9 -173 9 l-173 0 -114 -195 c-63 -107 -117 -195 -120 -195 -3 0
-63 88 -134 195 l-128 195 -179 0 c-98 0 -179 -2 -179 -5z"/>
<path d="M2022 4113 c-5 -16 -41 -116 -80 -223 -38 -107 -75 -207 -81 -222
-10 -28 -10 -28 33 -28 44 0 44 0 61 50 l17 50 107 0 107 0 15 -47 c14 -47 16
-48 58 -51 33 -2 42 0 39 10 -2 7 -42 120 -89 251 l-84 237 -46 0 c-42 0 -48
-3 -57 -27z m102 -200 l36 -103 -80 0 c-44 0 -80 2 -80 5 0 21 74 214 80 208
4 -4 24 -54 44 -110z"/>
<path d="M2380 3890 l0 -250 125 0 125 0 0 35 0 35 -85 0 -85 0 0 215 0 215
-40 0 -40 0 0 -250z"/>
<path d="M2700 3891 l0 -251 40 0 40 0 0 100 0 100 33 0 c31 0 36 -6 91 -100
l58 -100 44 0 c24 0 44 3 44 6 0 3 -22 43 -50 88 -67 112 -66 108 -24 131 41
22 74 78 74 126 0 46 -37 105 -79 126 -26 13 -68 18 -153 21 l-118 4 0 -251z
m241 160 c32 -26 33 -92 2 -123 -18 -17 -34 -22 -90 -22 l-68 -1 -3 83 -3 82
69 0 c54 0 75 -4 93 -19z"/>
<path d="M3150 3890 l0 -250 140 0 140 0 0 35 0 35 -95 0 -95 0 0 75 0 75 86
0 85 0 -3 33 -3 32 -82 3 -83 3 0 69 0 70 95 0 95 0 0 35 0 35 -140 0 -140 0
0 -250z"/>
<path d="M3672 4113 c-5 -16 -41 -116 -80 -223 -38 -107 -75 -207 -81 -222
-10 -28 -10 -28 33 -28 44 0 44 0 61 50 l17 50 107 0 107 0 15 -47 c14 -47 16
-48 58 -51 33 -2 42 0 39 10 -2 7 -42 120 -89 251 l-84 237 -46 0 c-42 0 -48
-3 -57 -27z m102 -200 l36 -103 -80 0 c-44 0 -80 2 -80 5 0 21 74 214 80 208
4 -4 24 -54 44 -110z"/>
<path d="M4030 3891 l0 -251 103 0 c132 0 194 18 253 72 97 90 96 266 -3 360
-50 47 -97 61 -230 66 l-123 4 0 -251z m264 156 c54 -31 80 -83 79 -163 -1
-70 -20 -113 -66 -148 -22 -17 -46 -22 -113 -25 l-84 -3 0 181 0 181 73 0 c56
0 81 -5 111 -23z"/>
<path d="M4500 4136 c0 -2 36 -74 80 -159 l80 -154 0 -91 0 -92 40 0 40 0 0
88 0 87 80 155 c44 84 80 158 80 162 0 4 -18 8 -41 8 l-40 0 -58 -122 -59
-123 -58 123 -58 122 -43 0 c-24 0 -43 -2 -43 -4z"/>
<path d="M5160 3890 l0 -250 40 0 40 0 0 250 0 250 -40 0 -40 0 0 -250z"/>
<path d="M5350 3890 l0 -250 40 0 40 0 2 185 3 186 122 -186 122 -185 41 0 40
0 0 250 0 250 -40 0 -40 0 0 -187 -1 -188 -122 187 -122 187 -42 1 -43 0 0
-250z"/>
<path d="M5830 4138 c0 -2 42 -113 93 -248 l93 -245 48 0 49 0 73 195 c40 107
82 219 93 248 l20 52 -43 0 -43 0 -73 -207 c-71 -199 -74 -206 -86 -178 -7 17
-41 110 -75 208 l-64 177 -42 0 c-24 0 -43 -1 -43 -2z"/>
<path d="M6370 3890 l0 -250 135 0 135 0 0 35 0 35 -95 0 -95 0 0 75 0 75 85
0 85 0 0 35 0 35 -85 0 -85 0 0 70 0 70 95 0 95 0 0 35 0 35 -135 0 -135 0 0
-250z"/>
<path d="M6802 4120 c-80 -49 -95 -149 -30 -209 12 -12 60 -33 105 -47 115
-35 146 -79 95 -136 -37 -43 -135 -25 -148 27 -5 22 -12 25 -50 25 -52 0 -57
-17 -21 -71 31 -47 79 -69 152 -69 81 0 123 23 154 83 48 96 7 159 -132 201
-97 30 -123 53 -111 101 15 60 130 67 156 9 9 -20 19 -24 55 -24 24 0 43 5 43
11 0 29 -35 78 -69 97 -52 30 -152 30 -199 2z"/>
<path d="M7150 4105 l0 -35 65 0 65 0 0 -215 0 -215 45 0 45 0 0 215 0 215 65
0 65 0 0 35 0 35 -175 0 -175 0 0 -35z"/>
<path d="M7580 3890 l0 -250 141 0 140 0 -3 33 -3 32 -97 3 -98 3 0 74 0 75
85 0 85 0 0 35 0 35 -85 0 -85 0 0 70 0 69 98 3 97 3 3 33 3 32 -140 0 -141 0
0 -250z"/>
<path d="M7960 3891 l0 -251 98 0 c162 1 234 29 289 112 25 38 28 50 28 133 0
84 -2 95 -30 141 -24 37 -44 56 -90 79 -54 27 -69 30 -177 34 l-118 3 0 -251z
m266 153 c57 -42 69 -69 69 -154 0 -87 -13 -116 -75 -157 -27 -19 -47 -23
-106 -23 l-74 0 0 181 0 181 79 -3 c61 -3 86 -9 107 -25z"/>
</g>
</svg>
